<?xml version="1.0" encoding="UTF-8" standalone="no"?>
<svg
   xmlns:dc="http://purl.org/dc/elements/1.1/"
   xmlns:cc="http://creativecommons.org/ns#"
   xmlns:rdf="http://www.w3.org/1999/02/22-rdf-syntax-ns#"
   xmlns:svg="http://www.w3.org/2000/svg"
   xmlns="http://www.w3.org/2000/svg"
   xmlns:sodipodi="http://sodipodi.sourceforge.net/DTD/sodipodi-0.dtd"
   xmlns:inkscape="http://www.inkscape.org/namespaces/inkscape"
   width="2168"
   height="864"
   version="1.1"
   id="svg48"
   sodipodi:docname="ge.svg"
   inkscape:version="1.0.1 (3bc2e813f5, 2020-09-07)">
  <metadata
     id="metadata54">
    <rdf:RDF>
      <cc:Work
         rdf:about="">
        <dc:format>image/svg+xml</dc:format>
        <dc:type
           rdf:resource="http://purl.org/dc/dcmitype/StillImage" />
      </cc:Work>
    </rdf:RDF>
  </metadata>
  <defs
     id="defs52" />
  <sodipodi:namedview
     pagecolor="#ffffff"
     bordercolor="#666666"
     borderopacity="1"
     objecttolerance="10"
     gridtolerance="10"
     guidetolerance="10"
     inkscape:pageopacity="0"
     inkscape:pageshadow="2"
     inkscape:window-width="1920"
     inkscape:window-height="1017"
     id="namedview50"
     showgrid="false"
     inkscape:zoom="0.46725092"
     inkscape:cx="807.86915"
     inkscape:cy="258.33633"
     inkscape:window-x="-8"
     inkscape:window-y="-8"
     inkscape:window-maximized="1"
     inkscape:current-layer="svg48" />
  <path
     d="M194.40375,167.13274 Q194.40375,167.13274 194.40375,167.13274 Q194.40375,167.13274 194.40375,167.13274 Q194.40375,167.13274 194.40375,167.13274 Q194.40375,167.13274 194.40375,167.13274 Q194.40375,167.13274 194.07922,167.13274 Q193.75468,167.13274 193.43555,167.2926 Q193.1164,167.45248 192.46321,167.4224 Q191.81003,167.3923 191.23798,167.71417 Q190.66592,168.03604 189.37277,168.1348 Q188.07964,168.23354 186.92444,168.52473 Q185.76923,168.81593 182.10527,169.39835 Q178.44131,169.98074 173.8489,170.81998 Q169.2565,171.65923 163.59265,173.37703 Q157.92879,175.09483 152.3222,176.84998 Q146.71564,178.60512 142.33374,180.60733 Q137.95184,182.60954 134.82182,184.52698 Q131.6918,186.4444 128.58725,189.02586 Q125.48268,191.60733 122.99305,193.77557 Q120.50342,195.94383 118.613396,198.15746 Q116.72337,200.37108 115.06169,202.738 Q113.40001,205.10495 112.02826,207.75958 Q110.65651,210.4142 109.92823,213.00922 Q109.19995,215.60422 108.69302,218.83322 Q108.1861,222.06221 108.32102,225.16823 Q108.45595,228.27425 108.80822,231.99298 Q109.16049,235.71172 110.18114,239.62482 Q111.20178,243.5379 112.42576,247.29271 Q113.649734,251.04752 115.51369,254.94821 Q117.37764,258.8489 119.83231,262.42947 Q122.28699,266.01004 124.97582,269.8376 Q127.66466,273.6651 130.58228,277.05408 Q133.49988,280.44305 137.07166,283.75824 Q140.64343,287.07346 144.10129,289.96503 Q147.55916,292.85657 150.98904,295.65607 Q154.41893,298.45554 158.18661,300.1753 Q161.95428,301.89508 165.46866,302.93726 Q168.98302,303.97946 172.40044,304.1738 Q175.81786,304.36813 178.59888,304.1167 Q181.37991,303.8653 183.90617,303.25177 Q186.43243,302.63828 189.03172,301.14993 Q191.63101,299.6616 193.15607,297.7124 Q194.6811,295.76318 196.41399,293.6197 Q198.14687,291.47617 199.1493,289.253 Q200.15175,287.02982 201.30943,284.81573 Q202.46712,282.60162 203.23755,279.50964 Q204.00798,276.41763 204.54353,274.1362 Q205.07909,271.85477 205.65125,268.56772 Q206.2234,265.28067 206.08188,262.9809 Q205.94035,260.68115 206.2984,258.54022 Q206.65645,256.39926 206.58682,254.35718 Q206.5172,252.31508 206.5172,251.04178 Q206.5172,249.76846 206.5172,248.34097 Q206.5172,246.9135 206.5172,246.12518 Q206.5172,245.33687 206.87569,243.78572 Q207.23418,242.23457 207.16411,241.93948 Q207.09404,241.64438 206.73703,241.60654 Q206.38004,241.56871 206.44861,241.1305 Q206.5172,240.69228 206.5172,240.45203 Q206.5172,240.21178 206.15729,239.78629 Q205.79738,239.36081 205.51208,239.13622 Q205.22678,238.91162 204.93628,238.81166 Q204.64578,238.7117 203.64413,238.42178 Q202.64249,238.13187 201.42963,237.87448 Q200.21675,237.61711 198.3328,237.51572 Q196.44882,237.4143 194.35867,236.96176 Q192.26851,236.50923 190.26129,236.76447 Q188.25409,237.01968 185.86618,236.82762 Q183.47827,236.63556 181.54868,236.66705 Q179.61908,236.69853 178.29083,236.8604 Q176.96259,237.02226 176.60263,236.99019 L176.24269,236.95811 "
     fill="none"
     stroke="#000000"
     stroke-width="8.269447"
     stroke-linecap="round"
     id="path4" />
  <path
     d="M272.2759,245.78362 Q272.2759,245.78362 272.2759,245.78362 Q272.2759,245.78362 272.2759,245.78362 Q272.2759,245.78362 272.2759,245.78362 Q272.2759,245.78362 272.2759,245.78362 Q272.2759,245.78362 272.2759,245.78362 Q272.2759,245.78362 272.97253,246.25385 Q273.6692,246.72406 275.29047,247.26999 Q276.91174,247.8159 278.68927,248.01974 Q280.46677,248.22359 285.34756,248.48529 Q290.22836,248.747 295.92786,248.84927 Q301.62735,248.95157 308.49866,248.14326 Q315.37,247.33496 317.13187,246.84384 Q318.89374,246.3527 322.18704,245.05203 Q325.48035,243.75134 326.22214,243.0528 Q326.96393,242.35423 328.09918,240.97226 Q329.23444,239.59027 329.3647,237.65948 Q329.49493,235.7287 329.43854,234.08917 Q329.38217,232.44966 327.9928,231.194 Q326.6034,229.93834 325.10767,228.64523 Q323.6119,227.35213 321.5014,226.22406 Q319.3909,225.096 316.99582,223.91104 Q314.60074,222.72607 312.20712,221.99734 Q309.8135,221.26862 306.83838,220.50279 Q303.86325,219.73697 301.019,219.28314 Q298.17477,218.8293 295.1874,218.45328 Q292.20004,218.07726 289.68542,218.01181 Q287.17084,217.94638 284.24744,217.9778 Q281.32404,218.00922 279.1457,218.6495 Q276.96735,219.28981 274.67108,220.12537 Q272.3748,220.96092 270.4419,222.04822 Q268.50903,223.13551 266.80798,224.51532 Q265.10693,225.89514 263.73843,227.34882 Q262.36993,228.80249 261.2798,230.55672 Q260.18964,232.31094 259.38477,234.33835 Q258.5799,236.36575 258.43396,238.47813 Q258.28802,240.59052 258.36,242.98909 Q258.43198,245.38766 259.15125,247.88174 Q259.87048,250.37582 261.15433,252.81558 Q262.43817,255.25533 264.2328,257.61847 Q266.02744,259.9816 267.8056,262.35687 Q269.58377,264.73215 271.9957,266.5726 Q274.40762,268.41306 277.05865,269.88446 Q279.70972,271.3559 283.32437,272.74487 Q286.93903,274.13385 291.42786,274.31274 Q295.9167,274.49167 300.65063,274.25684 Q305.38458,274.02203 310.49377,272.92133 Q315.60294,271.82065 321.16608,269.323 Q326.72922,266.82532 332.21008,263.1797 Q337.69095,259.5341 343.98892,254.47797 L350.2869,249.42183 "
     fill="none"
     stroke="#000000"
     stroke-width="8.269447"
     stroke-linecap="round"
     id="path6" />
  <path
     d="M440.1337,208.1454 Q440.1337,208.1454 440.1337,208.1454 Q440.1337,208.1454 439.84528,207.88583 Q439.5569,207.62625 438.84863,207.30754 Q438.14038,206.98883 437.56134,206.72827 Q436.98227,206.4677 436.40588,206.20831 Q435.82947,205.94891 434.5518,205.6914 Q433.2741,205.43391 432.1248,205.33356 Q430.97546,205.23318 429.8398,205.26164 Q428.70416,205.2901 427.19214,205.44731 Q425.68008,205.60452 422.7453,206.87296 Q419.81052,208.14137 416.95483,210.24603 Q414.09915,212.35068 410.86914,215.8681 Q407.63913,219.38551 405.43213,224.04306 Q403.22516,228.70062 402.74826,232.83249 Q402.27136,236.96434 402.45554,240.94522 Q402.6397,244.92612 403.34183,248.63834 Q404.04395,252.35056 405.65875,255.91806 Q407.27353,259.48557 409.0532,262.94186 Q410.83286,266.39816 413.22464,269.0846 Q415.61642,271.771 418.33795,274.0747 Q421.0595,276.37842 424.0021,278.23926 Q426.9447,280.1001 430.49252,281.71417 Q434.04034,283.32828 437.51404,284.23862 Q440.98773,285.14896 444.83698,285.72437 Q448.68625,286.29977 452.3953,286.3153 Q456.10434,286.3308 459.53757,286.14618 Q462.9708,285.96152 466.43823,284.88318 Q469.90567,283.80487 472.66895,282.4201 Q475.43225,281.03534 477.96606,279.1035 Q480.49985,277.17163 482.73428,275.04645 Q484.96872,272.9213 486.2331,270.3559 Q487.49747,267.79053 488.9203,264.88684 Q490.3431,261.98315 490.74103,259.59137 Q491.13895,257.1996 491.36435,253.96906 Q491.58975,250.73851 490.82465,248.1987 Q490.05957,245.65887 489.13928,242.14731 Q488.219,238.63573 486.6803,236.4081 Q485.14157,234.18047 483.32303,231.66911 Q481.5045,229.15776 478.7304,226.69757 Q475.9563,224.2374 473.372,222.40866 Q470.78775,220.57993 467.85773,218.95425 Q464.9277,217.3286 462.01422,216.25336 Q459.10074,215.17812 456.5626,214.6383 Q454.02444,214.09848 450.98755,214.23683 Q447.95065,214.37518 445.7897,214.53645 L443.62875,214.69772 "
     fill="none"
     stroke="#000000"
     stroke-width="8.269447"
     stroke-linecap="round"
     id="path8" />
  <path
     d="M554.92303,201.65605 Q554.92303,201.65605 554.63464,201.52628 Q554.34625,201.39648 553.98035,201.39648 Q553.61444,201.39648 552.9844,201.07808 Q552.3543,200.75967 552.12415,200.65613 Q551.89404,200.55257 551.60596,200.42296 Q551.31793,200.29335 551.03235,200.00388 Q550.74677,199.71442 550.10645,199.77673 Q549.4662,199.83904 549.5989,199.68073 Q549.73157,199.5224 549.3755,199.39072 Q549.0194,199.25902 548.7389,199.28946 Q548.4584,199.3199 548.1761,199.16599 Q547.8938,199.01207 547.58545,200.66525 Q547.27704,202.31845 547.70654,205.99083 Q548.136,209.66321 548.7886,215.22296 Q549.4412,220.78273 551.09204,227.27608 Q552.74286,233.76942 554.5337,240.28445 Q556.32446,246.79948 557.3025,250.10211 Q558.2805,253.40475 559.0988,255.74416 Q559.9171,258.08356 560.4303,259.57043 Q560.9435,261.05728 561.169,261.6378 Q561.39453,262.2183 561.67664,263.13525 Q561.9587,264.05225 561.90186,264.19043 Q561.84503,264.3286 561.84503,264.11258 Q561.84503,263.89655 561.49304,263.44995 Q561.141,263.00333 560.85266,262.61414 Q560.5644,262.2249 560.2759,261.20187 Q559.98737,260.17883 559.69855,259.2691 Q559.4097,258.35938 559.1217,256.65982 Q558.8336,254.96027 558.54706,253.09778 Q558.2605,251.2353 558.32227,248.9393 Q558.38403,246.64331 558.7263,243.88672 Q559.06866,241.13014 560.0412,237.94476 Q561.01373,234.75938 562.2555,231.236 Q563.4972,227.71262 564.99554,224.66695 Q566.4939,221.62128 568.7014,218.404 Q570.9089,215.18674 573.9707,212.10864 Q577.03253,209.03056 580.64417,206.54349 Q584.25586,204.0564 588.1029,201.60213 L591.95,199.14786 "
     fill="none"
     stroke="#000000"
     stroke-width="8.269447"
     stroke-linecap="round"
     id="path10" />
  <path
     d="M681.82587,204.77095 Q681.82587,204.77095 681.82587,204.77095 Q681.82587,204.77095 681.82587,204.77095 Q681.82587,204.77095 681.82587,204.77095 Q681.82587,204.77095 681.82587,204.77095 Q681.82587,204.77095 681.4691,204.77095 Q681.1124,204.77095 680.4625,204.60934 Q679.8126,204.44774 679.59546,204.64088 Q679.37836,204.83403 677.30396,205.44583 Q675.2295,206.05763 672.4595,207.84386 Q669.68945,209.63008 666.6952,212.01776 Q663.7009,214.40543 661.55255,217.71432 Q659.4042,221.02321 658.5325,224.58139 Q657.6607,228.13959 657.9182,230.51048 Q658.1758,232.88138 659.2512,235.55032 Q660.32666,238.21927 661.90375,240.0015 Q663.48083,241.78372 665.28845,243.41672 Q667.09607,245.04971 668.82166,245.60452 Q670.5473,246.15935 672.2699,246.453 Q673.99255,246.74666 675.7252,246.17249 Q677.45795,245.59831 678.4645,244.574 Q679.471,243.54971 680.2781,241.66821 Q681.0852,239.78673 680.87866,237.14886 Q680.6722,234.51102 680.6722,231.8894 Q680.6722,229.26778 679.6008,226.65402 Q678.5294,224.04028 677.6692,221.13959 Q676.8089,218.23889 675.22046,215.84262 Q673.6321,213.44633 673.26434,212.43132 Q672.8966,211.4163 671.96765,210.60693 Q671.0387,209.79756 670.17126,208.72641 Q669.3039,207.65524 668.7936,207.25719 Q668.2832,206.85913 668.0653,206.82306 Q667.8474,206.78699 667.56104,206.33994 Q667.2747,205.89288 666.9841,205.82071 Q666.6934,205.74855 666.43933,205.7789 Q666.1852,205.80923 666.5737,206.28905 Q666.9622,206.76886 667.6118,208.12944 Q668.26135,209.49002 669.90125,211.76968 Q671.5411,214.04933 674.06836,216.94737 Q676.59564,219.84541 679.2654,223.38223 Q681.93506,226.91907 684.5282,230.77374 Q687.1213,234.62843 690.02527,238.327 Q692.9293,242.02556 695.87744,245.87285 Q698.8255,249.72014 700.9735,253.29568 Q703.1215,256.87125 705.421,260.01157 Q707.7205,263.1519 709.66016,265.8994 Q711.59973,268.6469 712.5558,271.18747 Q713.5118,273.72803 714.66724,275.84732 Q715.82275,277.9666 715.9087,279.534 Q715.9946,281.10135 715.5675,282.80576 Q715.1403,284.51016 713.8114,285.6706 Q712.4824,286.831 710.57495,288.16925 Q708.66754,289.50754 705.86426,289.9968 Q703.061,290.48605 700.1273,290.4888 Q697.1936,290.49155 693.56995,290.29956 Q689.94635,290.10754 685.77734,288.68933 Q681.6084,287.27112 677.4945,284.60916 L673.3806,281.9472 "
     fill="none"
     stroke="#000000"
     stroke-width="8.269447"
     stroke-linecap="round"
     id="path12" />
  <path
     d="M1008.8889,206.06882 Q1008.8889,206.06882 1008.8889,206.06882 Q1008.8889,206.06882 1008.8889,206.06882 Q1008.8889,206.06882 1008.8889,206.06882 Q1008.8889,206.06882 1008.8889,206.06882 Q1008.8889,206.06882 1008.8889,206.06882 Q1008.8889,206.06882 1008.8889,206.06882 Q1008.8889,206.06882 1008.8889,205.77809 Q1008.8889,205.48737 1008.8889,205.04037 Q1008.8889,204.59338 1008.8889,204.36229 Q1008.8889,204.1312 1008.8889,203.72241 Q1008.8889,203.31363 1008.8889,203.06982 Q1008.8889,202.826 1008.8889,201.92584 Q1008.8889,201.0257 1008.8889,200.08255 Q1008.8889,199.13942 1009.2457,199.19888 Q1009.60254,199.25836 1009.89026,200.73148 Q1010.178,202.2046 1010.821,205.60837 Q1011.464,209.01213 1012.03894,212.94418 Q1012.6139,216.87625 1013.5535,221.15909 Q1014.49316,225.44193 1015.7186,229.76694 Q1016.94415,234.09196 1018.0895,238.18404 Q1019.23486,242.27611 1020.0332,245.95113 Q1020.83154,249.62614 1022.39484,252.71738 Q1023.9581,255.8086 1025.0751,257.8354 L1026.192,259.86215 "
     fill="none"
     stroke="#000000"
     stroke-width="8.269447"
     stroke-linecap="round"
     id="path18" />
  <path
     d="M1007.15845,157.5285 Q1007.15845,157.5285 1007.15845,157.5285 Q1007.15845,157.5285 1007.15845,157.5285 Q1007.15845,157.5285 1006.83636,157.81834 Q1006.5143,158.10818 1005.84424,158.23624 Q1005.17426,158.36429 1004.94836,158.49446 Q1004.72253,158.62463 1004.428,158.7572 Q1004.1335,158.88976 1003.4806,158.85806 Q1002.82764,158.82637 1002.61145,159.15277 L1002.39526,159.47917 "
     fill="none"
     stroke="#000000"
     stroke-width="8.269447"
     stroke-linecap="round"
     id="path20" />
  <path
     d="M1078.1086,184.2646 Q1078.1086,184.2646 1078.1086,184.2646 Q1078.1086,184.2646 1078.1086,184.2646 Q1078.1086,184.2646 1078.1086,184.2646 Q1078.1086,184.2646 1078.1086,184.2646 Q1078.1086,184.2646 1078.1086,184.2646 Q1078.1086,184.2646 1078.1086,184.2646 Q1078.1086,184.2646 1078.1086,184.2646 Q1078.1086,184.2646 1078.1086,184.2646 Q1078.1086,184.2646 1078.1086,185.71082 Q1078.1086,187.15704 1078.4661,189.6133 Q1078.8235,192.06955 1079.8293,195.89468 Q1080.8351,199.7198 1082.0568,204.50652 Q1083.2784,209.29323 1084.4319,214.31781 Q1085.5853,219.3424 1086.3774,223.29013 Q1087.1696,227.23787 1088.3939,230.91853 Q1089.6183,234.5992 1090.7795,237.57973 Q1091.9408,240.56026 1092.7202,243.14294 Q1093.4998,245.72562 1094.3774,247.03961 Q1095.255,248.35362 1095.7618,249.1048 Q1096.2687,249.85596 1096.4866,250.43994 Q1096.7043,251.02394 1096.9951,251.35486 Q1097.286,251.68576 1097.5391,251.73581 Q1097.7921,251.78586 1097.7565,252.25276 Q1097.7208,252.71967 1098.079,252.6261 Q1098.4371,252.53255 1098.7253,252.53255 Q1099.0135,252.53255 1098.9441,252.04645 Q1098.8745,251.56035 1098.8745,250.06085 Q1098.8745,248.56134 1098.5161,245.95695 Q1098.1578,243.35257 1098.2278,240.38899 Q1098.2977,237.42542 1098.2977,233.72925 Q1098.2977,230.03307 1098.2977,226.22708 Q1098.2977,222.42108 1098.6582,218.95047 Q1099.0187,215.47986 1099.3071,212.78674 Q1099.5955,210.09364 1099.884,207.88492 Q1100.1727,205.67618 1100.4607,204.47885 Q1100.7487,203.28151 1101.3837,202.36462 Q1102.0187,201.44774 1102.603,200.39566 Q1103.1875,199.3436 1103.4055,199.27127 Q1103.6237,199.19894 1104.2554,198.78758 Q1104.8872,198.37622 1105.8384,198.4587 Q1106.7896,198.54117 1107.6547,198.86316 Q1108.5198,199.18515 1109.3826,199.92584 Q1110.2455,200.66652 1111.4622,201.31232 Q1112.6787,201.9581 1113.8441,202.775 Q1115.0095,203.5919 1116.1501,205.00119 Q1117.2908,206.41049 1118.7997,208.02805 Q1120.3086,209.64558 1121.394,211.36078 Q1122.4794,213.07596 1123.9971,215.25552 Q1125.5148,217.43509 1126.5687,219.45511 Q1127.6227,221.47513 1129.1626,223.92638 Q1130.7026,226.37762 1132.142,228.54929 Q1133.5813,230.72093 1134.6771,233.59024 Q1135.773,236.45955 1136.5681,239.02307 Q1137.3633,241.58661 1138.2255,244.17307 Q1139.0876,246.7595 1140.3057,249.18536 Q1141.5236,251.6112 1141.6102,252.79987 Q1141.6969,253.98851 1143.0513,255.73059 Q1144.4055,257.4727 1144.8479,257.87955 Q1145.2902,258.2864 1145.507,258.7674 Q1145.7238,259.24835 1145.6609,259.28027 Q1145.5979,259.31223 1145.5979,259.13818 Q1145.5979,258.9641 1145.5979,258.19244 Q1145.5979,257.42078 1145.2429,255.49617 Q1144.8881,253.57156 1144.2444,250.44565 Q1143.6007,247.31972 1143.0208,243.00449 Q1142.4409,238.68927 1141.8616,234.00433 Q1141.2821,229.31938 1141.0637,224.14131 Q1140.8453,218.96324 1141.2675,214.13385 Q1141.6896,209.30447 1142.3315,204.6883 Q1142.9734,200.07211 1144.272,196.46341 Q1145.5706,192.85469 1146.7312,190.03722 Q1147.8917,187.21974 1149.7739,185.51422 Q1151.656,183.8087 1153.3788,183.32596 Q1155.1016,182.84323 1156.4746,183.03477 Q1157.8475,183.22632 1159.2828,184.51643 Q1160.7181,185.80655 1162.5205,187.6531 Q1164.323,189.49965 1166.0405,192.6181 Q1167.7579,195.73654 1168.7786,199.08206 Q1169.7992,202.4276 1171.2964,206.91806 Q1172.7937,211.40854 1173.5216,215.82547 Q1174.2495,220.24239 1175.4624,224.95128 Q1176.6753,229.66017 1177.4866,234.38245 Q1178.2979,239.10474 1179.1655,243.46973 Q1180.0331,247.83473 1181.6138,251.45964 L1183.1945,255.08455 "
     fill="none"
     stroke="#000000"
     stroke-width="8.269447"
     stroke-linecap="round"
     id="path22" />
  <path
     d="M1232.6993,188.15822 Q1232.6993,188.15822 1232.6993,188.15822 Q1232.6993,188.15822 1232.6993,188.15822 Q1232.6993,188.15822 1232.6993,188.15822 Q1232.6993,188.15822 1232.6993,188.15822 Q1232.6993,188.15822 1232.6993,188.15822 Q1232.6993,188.15822 1232.6993,188.47989 Q1232.6993,188.80156 1233.0559,190.98611 Q1233.4125,193.17067 1234.0559,197.22429 Q1234.6993,201.27791 1235.6306,207.78421 Q1236.5619,214.29051 1237.7842,221.55023 Q1239.0063,228.80997 1240.1617,235.82878 Q1241.3171,242.8476 1242.1207,247.00415 Q1242.9243,251.16072 1243.4312,254.05911 Q1243.9381,256.95752 1244.1567,258.58963 Q1244.3752,260.22174 1244.6602,261.9854 Q1244.9451,263.7491 1245.2352,264.29428 Q1245.5254,264.83945 1245.4575,265.1377 L1245.3896,265.43597 "
     fill="none"
     stroke="#000000"
     stroke-width="8.269447"
     stroke-linecap="round"
     id="path24" />
  <path
     d="M1235.5835,146.88597 Q1235.5835,146.88597 1235.5835,146.88597 Q1235.5835,146.88597 1235.5835,146.88597 Q1235.5835,146.88597 1235.5835,146.88597 Q1235.5835,146.88597 1234.937,147.03143 Q1234.2904,147.1769 1234.004,147.16122 Q1233.7177,147.14554 1233.4287,147.30605 Q1233.1396,147.46655 1232.5033,147.59436 Q1231.867,147.72215 1231.6387,148.01385 Q1231.4103,148.30556 1231.1176,148.24469 Q1230.8248,148.18384 1230.1863,148.34372 Q1229.5476,148.50359 1229.6814,148.96071 L1229.8152,149.41783 "
     fill="none"
     stroke="#000000"
     stroke-width="8.269447"
     stroke-linecap="round"
     id="path26" />
  <path
     d="M1292.6898,121.96687 Q1292.6898,121.96687 1292.6898,121.96687 Q1292.6898,121.96687 1292.6898,121.96687 Q1292.6898,121.96687 1292.6898,121.96687 Q1292.6898,121.96687 1292.6898,121.96687 Q1292.6898,121.96687 1292.6898,121.96687 Q1292.6898,121.96687 1292.6898,121.96687 Q1292.6898,121.96687 1292.6898,122.2896 Q1292.6898,122.61233 1292.6898,124.96935 Q1292.6898,127.32638 1292.6898,132.01404 Q1292.6898,136.7017 1292.3293,143.47675 Q1291.969,150.25177 1292.4008,158.25102 Q1292.8325,166.25027 1293.4797,174.3789 Q1294.1268,182.50755 1295.0593,188.26523 Q1295.9918,194.02292 1297.576,199.45792 Q1299.1603,204.89291 1301.303,210.10712 Q1303.4457,215.32133 1305.846,219.73016 Q1308.2463,224.139 1310.5614,228.2102 Q1312.8765,232.28142 1315.5295,235.11987 Q1318.1827,237.95833 1320.4285,239.95158 Q1322.6743,241.94484 1324.9258,243.14497 Q1327.1771,244.34511 1329.8922,244.34915 Q1332.6073,244.35318 1334.8813,243.30789 L1337.1553,242.26262 "
     fill="none"
     stroke="#000000"
     stroke-width="8.269447"
     stroke-linecap="round"
     id="path28" />
  <path
     d="M1288.0751,174.14122 Q1288.0751,174.14122 1288.0751,174.14122 Q1288.0751,174.14122 1288.0751,174.14122 Q1288.0751,174.14122 1288.0751,174.14122 Q1288.0751,174.14122 1288.3997,174.43336 Q1288.7242,174.72551 1290.8447,175.17816 Q1292.9651,175.63083 1297.6177,176.51443 L1302.2704,177.39803 "
     fill="none"
     stroke="#000000"
     stroke-width="8.269447"
     stroke-linecap="round"
     id="path30" />
  <path
     d="M1362.4862,175.69867 Q1362.4862,175.69867 1362.4862,175.69867 Q1362.4862,175.69867 1362.4862,175.69867 Q1362.4862,175.69867 1362.4862,175.69867 Q1362.4862,175.69867 1362.4862,175.69867 Q1362.4862,175.69867 1362.4862,176.02185 Q1362.4862,176.34505 1362.8447,177.24951 Q1363.2034,178.15399 1363.4924,179.5813 Q1363.7815,181.0086 1365.1428,185.36227 Q1366.5042,189.71596 1368.3724,196.05273 Q1370.2407,202.38951 1372.333,210.17647 Q1374.4253,217.96342 1376.0737,224.50774 Q1377.722,231.05205 1378.7515,235.44385 Q1379.7809,239.83563 1380.2119,241.22784 Q1380.6428,242.62004 1380.8618,243.56882 Q1381.0808,244.51761 1381.0128,245.37816 Q1380.9448,246.23871 1380.9448,246.49292 Q1380.9448,246.74712 1380.9448,246.9783 Q1380.9448,247.20947 1381.3037,246.98398 Q1381.6627,246.7585 1381.5922,246.14307 Q1381.5216,245.52762 1381.8787,244.53119 Q1382.2357,243.53477 1382.1671,242.29813 Q1382.0985,241.06148 1382.817,239.89099 Q1383.5355,238.7205 1384.1079,236.9189 Q1384.6802,235.1173 1385.9744,233.10318 Q1387.2686,231.08905 1389.4905,228.18326 Q1391.7123,225.27747 1394.8422,221.86436 Q1397.972,218.45126 1401.9375,214.39633 L1405.9028,210.34138 "
     fill="none"
     stroke="#000000"
     stroke-width="8.269447"
     stroke-linecap="round"
     id="path32" />
  <path
     d="M1449.011,184.52419 Q1449.011,184.52419 1449.011,184.52419 Q1449.011,184.52419 1449.011,184.52419 Q1449.011,184.52419 1449.011,184.52419 Q1449.011,184.52419 1449.011,184.52419 Q1449.011,184.52419 1449.011,185.1657 Q1449.011,185.8072 1449.011,187.9379 Q1449.011,190.06857 1449.7269,194.9486 Q1450.4429,199.82861 1451.022,206.22893 Q1451.6011,212.62924 1452.5315,219.5267 Q1453.4619,226.42415 1454.6769,232.16913 Q1455.8918,237.91412 1456.7021,241.37921 Q1457.5123,244.84428 1458.7333,246.9511 L1459.9542,249.0579 "
     fill="none"
     stroke="#000000"
     stroke-width="8.269447"
     stroke-linecap="round"
     id="path34" />
  <path
     d="M1541.8807,173.62209 Q1541.8807,173.62209 1541.8807,173.62209 Q1541.8807,173.62209 1541.8807,173.62209 Q1541.8807,173.62209 1541.5923,173.88165 Q1541.3037,174.14122 1540.5952,174.30066 Q1539.8866,174.4601 1538.5905,175.073 Q1537.2943,175.6859 1535.0588,176.53049 Q1532.8235,177.37508 1530.0951,178.95636 Q1527.3667,180.53764 1524.7815,182.11996 Q1522.1962,183.70227 1519.9788,185.72267 Q1517.7612,187.74307 1516.1702,189.5217 Q1514.579,191.30031 1513.5345,193.30746 Q1512.4901,195.31464 1511.339,197.89853 Q1510.1879,200.4824 1509.3894,203.11215 Q1508.5911,205.74188 1507.3679,208.98294 Q1506.1448,212.22401 1506.064,215.16025 Q1505.9833,218.0965 1506.0503,221.07953 Q1506.1172,224.06256 1506.4734,226.09741 Q1506.8297,228.13226 1507.4733,230.33455 Q1508.1168,232.53683 1509.3997,233.93542 Q1510.6824,235.334 1511.8345,236.73006 Q1512.9866,238.12611 1514.502,238.76157 Q1516.0175,239.39703 1518.5138,239.53444 Q1521.0101,239.67184 1523.6687,239.45369 Q1526.3274,239.23553 1529.9985,238.3067 Q1533.6698,237.37788 1537.8613,234.83113 Q1542.0529,232.28438 1546.8054,228.79364 Q1551.558,225.30289 1556.6128,219.88855 L1561.6676,214.47423 "
     fill="none"
     stroke="#000000"
     stroke-width="8.269447"
     stroke-linecap="round"
     id="path38" />
  <path
     d="M1503.2329,163.23912 Q1503.2329,163.23912 1503.2329,163.23912 Q1503.2329,163.23912 1503.2329,163.23912 Q1503.2329,163.23912 1503.2329,163.23912 Q1503.2329,163.23912 1503.2329,163.23912 Q1503.2329,163.23912 1503.2329,163.23912 Q1503.2329,163.23912 1504.5281,162.65631 Q1505.8232,162.0735 1507.8298,160.68729 Q1509.8363,159.30107 1513.343,157.01434 Q1516.8496,154.72762 1520.0369,151.67458 Q1523.2241,148.62154 1526.7263,145.14938 Q1530.2286,141.67722 1533.0326,138.72662 L1535.8365,135.77605 "
     fill="none"
     stroke="#000000"
     stroke-width="8.269447"
     stroke-linecap="round"
     id="path40" />
  <path
     d="M856.6056,154.4136 Q856.6056,154.4136 856.6056,154.4136 Q856.6056,154.4136 856.6056,154.4136 Q856.6056,154.4136 856.6056,154.4136 Q856.6056,154.4136 856.6056,154.4136 Q856.6056,154.4136 856.6056,154.4136 Q856.6056,154.4136 856.6056,154.4136 Q856.6056,154.4136 856.6056,155.71597 Q856.6056,157.01836 856.6056,159.6146 Q856.6056,162.21083 856.9581,165.97028 Q857.3107,169.7297 857.9687,174.47438 Q858.62665,179.21906 859.5521,183.5689 Q860.47766,187.91873 861.3425,191.5267 Q862.2074,195.13466 863.4176,198.70065 Q864.62787,202.26663 865.4147,205.68875 Q866.2015,209.11086 866.738,212.7413 Q867.2745,216.37173 868.20935,219.86838 Q869.14417,223.36504 869.989,226.62827 Q870.8339,229.89151 871.72705,233.53726 Q872.6201,237.183 873.47864,240.82187 Q874.33716,244.46075 875.20166,248.0914 Q876.0661,251.72206 877.2836,255.01233 Q878.50116,258.30258 878.9436,261.21426 Q879.38605,264.12595 879.9622,266.29962 Q880.5384,268.47327 880.7507,269.65125 Q880.96295,270.82922 881.25525,272.27612 Q881.5475,273.72302 881.8349,274.6643 Q882.1223,275.6056 882.41296,276.329 Q882.70355,277.05243 882.27637,277.505 L881.84924,277.95755 "
     fill="none"
     stroke="#000000"
     stroke-width="8.269447"
     stroke-linecap="round"
     id="path44" />
  <path
     d="M868.71906,147.66469 Q868.71906,147.66469 868.71906,147.66469 Q868.71906,147.66469 868.71906,147.66469 Q868.71906,147.66469 868.71906,147.66469 Q868.71906,147.66469 868.71906,147.66469 Q868.71906,147.66469 868.71906,147.66469 Q868.71906,147.66469 868.71906,147.66469 Q868.71906,147.66469 868.71906,147.66469 Q868.71906,147.66469 870.14844,146.86066 Q871.5778,146.05663 874.1034,145.26627 Q876.629,144.47592 879.7302,144.31909 Q882.8314,144.16225 886.4397,144.38821 Q890.0479,144.61418 893.8727,145.71674 Q897.6974,146.8193 900.7014,148.36499 Q903.7054,149.91069 906.5139,151.49614 Q909.3224,153.08159 912.20734,154.96117 Q915.0923,156.84074 917.96716,158.81232 Q920.842,160.78389 923.75037,163.2316 Q926.65875,165.67929 929.1731,168.00568 Q931.68744,170.33206 933.91815,172.98196 Q936.14886,175.63185 938.4741,178.24774 Q940.7994,180.86362 942.7495,183.46175 Q944.6996,186.05988 946.7125,188.97061 Q948.72546,191.88133 949.6643,193.92105 Q950.6031,195.96075 951.74646,198.14746 Q952.88983,200.33415 952.9823,202.24109 Q953.07477,204.14803 953.3625,206.09013 Q953.6502,208.03224 953.58167,209.65596 Q953.5132,211.27968 953.1555,212.9727 Q952.7979,214.66573 952.1593,216.3312 Q951.5207,217.99667 950.2215,220.1879 Q948.9223,222.3791 948.12164,224.95137 Q947.321,227.52364 946.4575,229.66177 Q945.5941,231.79991 944.7306,234.4851 Q943.867,237.1703 943.00415,239.43748 Q942.1413,241.70467 941.29047,243.52637 Q940.43964,245.34807 939.91736,247.00511 Q939.3951,248.66216 938.4544,249.71613 Q937.51373,250.77008 937.3719,251.43999 Q937.23004,252.1099 935.49866,253.22595 Q933.7672,254.34201 932.32935,255.21591 Q930.8915,256.0898 929.0995,256.9937 Q927.3075,257.8976 924.8446,258.6515 Q922.3818,259.40536 920.08325,260.66486 Q917.7847,261.92435 914.7624,263.25293 Q911.74005,264.58154 908.4916,265.72052 Q905.24304,266.85947 902.4495,268.1798 Q899.656,269.50015 896.4386,270.62888 Q893.22125,271.7576 890.8231,272.42746 Q888.4249,273.09732 886.14185,273.88773 Q883.85876,274.67813 881.59204,275.13123 Q879.3254,275.58435 877.3184,276.2743 Q875.31146,276.96423 873.23615,276.98114 L871.1608,276.99802 "
     fill="none"
     stroke="#000000"
     stroke-width="8.269447"
     stroke-linecap="round"
     id="path46" />
  <path
     d="m 1447.5566,149.19608 q 0,0 0,0 0,0 0,0 0,0 0,0 0,0 -0.6465,0.14546 -0.6466,0.14547 -0.933,0.12979 -0.2863,-0.0157 -0.5753,0.14483 -0.2891,0.1605 -0.9254,0.28831 -0.6363,0.12779 -0.8646,0.41949 -0.2284,0.29171 -0.5211,0.23084 -0.2928,-0.0608 -0.9313,0.099 -0.6387,0.15987 -0.5049,0.61699 l 0.1338,0.45712"
     fill="none"
     stroke="#000000"
     stroke-width="8.26945"
     stroke-linecap="round"
     id="path26-7" />
</svg>
